# xmcd CD database file
#
# Track frame offsets:
#	150
#	9970
#	23270
#	37270
#	47845
#	71355
#	83115
#	92965
#	115660
#	134285
#	148885
#
# Disc length: 2165 seconds
#
# Revision: 0
# Processed by: cddbd v1.5.2PL0 Copyright (c) Steve Scherf et al.
# Submitted via: CDex 1.70beta3
#
DISCID=8b08730b
DTITLE=Eddie Lockjaw Davis - Love Calls
DYEAR=1967
DGENRE=Jazz
TTITLE0=Love Is Here To Stay
TTITLE1=When Sunny Gets Blue
TTITLE2=If I Ruled The World
TTITLE3=Time After Time
TTITLE4=Just Friends
TTITLE5=Don't Blame Me
TTITLE6=I Should Care
TTITLE7=The Man With The Horn
TTITLE8=We'll Be Together Again
TTITLE9=A Weaver Of Dreams
TTITLE10=If I Should Lose You
EXTD=YEAR: 1967
EXTT0=
EXTT1=
EXTT2=
EXTT3=
EXTT4=
EXTT5=
EXTT6=
EXTT7=
EXTT8=
EXTT9=
EXTT10=
PLAYORDER=
